<svg width="21" height="20" viewBox="0 0 21 20" fill="none" xmlns="http://www.w3.org/2000/svg">
<g id="book-closed">
<path id="Solid" fill-rule="evenodd" clip-rule="evenodd" d="M3.03688 16.0432C3.07515 16.5116 3.15729 16.9422 3.36337 17.3467C3.68295 17.9739 4.19288 18.4838 4.82009 18.8034C5.22453 19.0095 5.65512 19.0916 6.12353 19.1299C6.57453 19.1667 7.12815 19.1667 7.79895 19.1667H14.5322C14.9715 19.1667 15.3504 19.1667 15.6626 19.1412C15.992 19.1143 16.3197 19.0549 16.635 18.8942C17.1054 18.6545 17.4879 18.2721 17.7276 17.8017C17.8882 17.4864 17.9477 17.1587 17.9746 16.8292C17.9974 16.5494 18.0001 16.2161 18.0001 15.8334C18.0001 11.9893 18.0001 8.14528 18.0001 4.30124C18.0001 3.86195 18.0001 3.48299 17.9746 3.17085C17.9477 2.8414 17.8882 2.51372 17.7276 2.1984C17.4879 1.72799 17.1054 1.34554 16.635 1.10586C16.3197 0.945198 15.992 0.885768 15.6626 0.858851C15.3504 0.833348 14.9715 0.833361 14.5322 0.833375H7.79897C7.12819 0.833365 6.57452 0.833357 6.12353 0.870204C5.65512 0.908475 5.22453 0.990612 4.82009 1.19669C4.19288 1.51627 3.68295 2.0262 3.36337 2.65341C3.15729 3.05785 3.07515 3.48844 3.03688 3.95685C3.00004 4.40785 3.00004 4.96148 3.00005 5.63228V14.3678C3.00005 14.927 2.99138 15.4863 3.03688 16.0432ZM16.3135 16.6935C16.295 16.9199 16.2636 17.0038 16.2426 17.045C16.1627 17.2018 16.0352 17.3293 15.8784 17.4092C15.8372 17.4302 15.7532 17.4616 15.5269 17.4801C15.2907 17.4994 14.9805 17.5 14.5001 17.5H7.83339C7.11957 17.5 6.63433 17.4994 6.25925 17.4688C5.89391 17.4389 5.70707 17.3848 5.57674 17.3184C5.26313 17.1586 5.00817 16.9036 4.84838 16.59C4.69906 16.297 4.62523 16.0432 4.68071 15.6164C4.78705 14.7985 5.48644 14.1667 6.33339 14.1667H16.3334C16.3334 15.0042 16.3817 15.858 16.3135 16.6935Z" fill="#9695A5"/>
</g>
</svg>
