<svg width="14" height="14" viewBox="0 0 14 14" fill="none" xmlns="http://www.w3.org/2000/svg">
<g id="coins-02" clip-path="url(#clip0_60_1587)">
<path id="Fill" opacity="0.12" d="M5.25008 12.8333C7.50524 12.8333 9.33341 11.0052 9.33341 8.75C9.33341 6.49483 7.50524 4.66666 5.25008 4.66666C2.99492 4.66666 1.16675 6.49483 1.16675 8.75C1.16675 11.0052 2.99492 12.8333 5.25008 12.8333Z" fill="white"/>
<path id="Icon" d="M9.29709 9.29701C11.2936 9.02971 12.8334 7.31968 12.8334 5.25C12.8334 2.99483 11.0052 1.16666 8.75008 1.16666C6.6804 1.16666 4.97037 2.70647 4.70307 4.70299M4.37508 7.58333L5.25008 7V10.2083M4.37508 10.2083H6.12508M9.33341 8.75C9.33341 11.0052 7.50524 12.8333 5.25008 12.8333C2.99492 12.8333 1.16675 11.0052 1.16675 8.75C1.16675 6.49483 2.99492 4.66666 5.25008 4.66666C7.50524 4.66666 9.33341 6.49483 9.33341 8.75Z" stroke="white" stroke-linecap="round" stroke-linejoin="round"/>
</g>
<defs>
<clipPath id="clip0_60_1587">
<rect width="14" height="14" fill="white"/>
</clipPath>
</defs>
</svg>
