<svg width="20" height="20" viewBox="0 0 20 20" fill="none" xmlns="http://www.w3.org/2000/svg">
<g id="home-05">
<path id="Solid" fill-rule="evenodd" clip-rule="evenodd" d="M9.56437 1.11359C9.84962 1.03636 10.1503 1.03636 10.4355 1.11359C10.7667 1.20325 11.0455 1.42213 11.268 1.59682C13.1875 3.10381 15.1189 4.59555 17.0468 6.09172C17.3607 6.33529 17.6372 6.54988 17.8433 6.82847C18.0241 7.07295 18.1588 7.34837 18.2408 7.64121C18.3342 7.97489 18.3338 8.3249 18.3333 8.72219C18.3312 10.7699 18.3333 12.8177 18.3333 14.8654C18.3333 15.3047 18.3333 15.6837 18.3078 15.9958C18.2809 16.3253 18.2215 16.6529 18.0608 16.9683C17.8211 17.4387 17.4387 17.8211 16.9683 18.0608C16.6529 18.2215 16.3253 18.2809 15.9958 18.3078C15.3279 18.3624 14.6504 18.333 13.9807 18.3333C13.8814 18.3333 13.7629 18.3334 13.6584 18.3248C13.5374 18.3149 13.3641 18.2896 13.1825 18.197C12.9473 18.0772 12.756 17.886 12.6362 17.6508C12.5437 17.4691 12.5183 17.2958 12.5084 17.1748C12.4999 17.0704 12.4999 16.9518 12.4999 16.8526L12.5065 12.189C12.5072 11.7217 12.5075 11.4881 12.4168 11.3095C12.337 11.1525 12.2094 11.0248 12.0525 10.9448C11.8741 10.8538 11.6405 10.8538 11.1732 10.8538H8.83997C8.37386 10.8538 8.1408 10.8538 7.96267 10.9445C7.80598 11.0242 7.67853 11.1515 7.59856 11.3081C7.50763 11.4861 7.5073 11.7191 7.50663 12.1852L7.49996 16.8526C7.5 16.9518 7.50004 17.0704 7.49151 17.1748C7.48162 17.2958 7.45625 17.4691 7.36371 17.6508C7.24387 17.886 7.05264 18.0772 6.81744 18.197C6.63582 18.2896 6.46249 18.3149 6.34148 18.3248C6.23705 18.3334 6.11851 18.3333 6.01925 18.3333C5.34951 18.333 4.67203 18.3624 4.0041 18.3078C3.67464 18.2809 3.34696 18.2215 3.03164 18.0608C2.56124 17.8211 2.17879 17.4387 1.9391 16.9683C1.77844 16.6529 1.71901 16.3253 1.69209 15.9958C1.66659 15.6837 1.6666 15.3047 1.66662 14.8654C1.66662 12.8177 1.66878 10.7699 1.66656 8.72218C1.66613 8.3249 1.66575 7.97489 1.75915 7.64121C1.84112 7.34837 1.97583 7.07295 2.15665 6.82847C2.3627 6.54988 2.63921 6.3353 2.95307 6.09173C4.88093 4.59562 6.81254 3.10377 8.73194 1.59682C8.95444 1.42213 9.23323 1.20325 9.56437 1.11359Z" fill="#9695A5"/>
</g>
</svg>
