<svg width="14" height="14" viewBox="0 0 14 14" fill="none" xmlns="http://www.w3.org/2000/svg">
<g id="lightning-01">
<path id="Solid" d="M8.16224 1.23906C8.19436 0.982098 8.05324 0.734724 7.8157 0.631609C7.57815 0.528494 7.30107 0.594324 7.13529 0.793261L1.92643 7.04388C1.83642 7.15186 1.74524 7.26123 1.67886 7.35734C1.61607 7.44824 1.50144 7.62696 1.4979 7.86184C1.49385 8.13074 1.61367 8.38657 1.82284 8.5556C2.00555 8.70325 2.21623 8.7296 2.32625 8.73956C2.44258 8.75009 2.58496 8.75006 2.72554 8.75004L6.33929 8.75004L5.83792 12.761C5.8058 13.018 5.94693 13.2653 6.18447 13.3685C6.42201 13.4716 6.6991 13.4057 6.86488 13.2068L12.0737 6.95619C12.1637 6.84821 12.2549 6.73884 12.3213 6.64273C12.3841 6.55183 12.4987 6.37311 12.5023 6.13823C12.5063 5.86933 12.3865 5.6135 12.1773 5.44447C11.9946 5.29683 11.7839 5.27047 11.6739 5.26051C11.5576 5.24998 11.4152 5.25001 11.2746 5.25003L7.66087 5.25004L8.16224 1.23906Z" fill="#FFD465"/>
</g>
</svg>
